<?xml version="1.0" encoding="utf-8"?>
<!-- Generator: Adobe Illustrator 21.1.0, SVG Export Plug-In . SVG Version: 6.00 Build 0)  -->
<svg version="1.1" id="Layer_2" xmlns="http://www.w3.org/2000/svg" xmlns:xlink="http://www.w3.org/1999/xlink" x="0px" y="0px"
	 viewBox="0 0 88 35" style="enable-background:new 0 0 88 35;" xml:space="preserve">
<style type="text/css">
	.st0{fill:#0C29D0;}
</style>
<g transform="translate(-500 -1653)">
	<g>
		<path id="b" class="st0" d="M512.8,1662.7c-7.4,0-12.7,5.5-12.7,12.6s5.3,12.6,12.7,12.6c7.3,0,12.6-5.5,12.6-12.6
			C525.4,1668.2,520.1,1662.7,512.8,1662.7z M518.7,1675.4c0,3.9-2.4,7-6,7c-3.6,0-6-3.1-6-7c0-4,2.4-7,6-7
			S518.7,1671.4,518.7,1675.4z"/>
	</g>
	<g>
		<path id="c" class="st0" d="M535.7,1653h-6.5v34.4h6.5V1653z"/>
	</g>
	<g>
		<path id="d" class="st0" d="M547.6,1687.4v-24.2h-6.5v24.2H547.6z M547.6,1659.9v-5.6h-6.5v5.6H547.6z"/>
	</g>
	<g>
		<path id="e" class="st0" d="M569.8,1665.9c-2.3-2.1-5.1-3.2-8.4-3.2c-4.4,0-8.6,2.5-8.6,7.4c0,4.2,3.2,5.9,6.1,7.1
			c2.4,1.1,4.6,1.8,4.6,3.5c0,1.5-1.7,2.1-3.1,2.1c-2.3,0-3.9-1.1-5.7-2.8l-3.7,3.9c2.7,2.7,6,4.1,9.7,4.1c4.7,0,9.3-2.4,9.3-7.8
			c0-4.6-3.9-6.2-7.1-7.4c-2-0.8-3.8-1.6-3.8-3.1c0-1.1,1.1-1.8,2.3-1.8c1.8,0,3.5,0.9,4.8,2L569.8,1665.9L569.8,1665.9z"/>
	</g>
	<g>
		<path id="f" class="st0" d="M587.2,1668.7v-5.4h-6.2v-5.3h-5.5l-1,5.3h-2.9v5.4h2.9v10.1c0,1.4,0.1,2.8,0.5,4
			c0.9,3.1,3.4,5.2,7.2,5.2c1.9,0,4.2-0.5,5.7-1.4l-2-4.8c-0.8,0.4-1.6,0.7-2.6,0.7c-1.4,0-1.9-0.9-2.1-2.3
			c-0.1-0.7-0.1-1.3-0.1-2.1v-9.4L587.2,1668.7L587.2,1668.7z"/>
	</g>
</g>
</svg>
